<?xml version="1.0" encoding="UTF-8" standalone="no"?>
<!-- Created with Inkscape (http://www.inkscape.org/) -->
<svg xmlns="http://www.w3.org/2000/svg" width="175" height="57">
  <g style="display:inline">
    <path style="fill:#f15a23;fill-rule:evenodd" d="M 2.639645,22.755996 L 17.053175,40.938099 L 2.639645,52.881776 L 2.639645,22.755996 L 2.639645,22.755996 z" id="path3242"/>
    <path style="fill:#f15a23;fill-rule:evenodd" d="M 8.4406001,52.881776 L 19.286065,43.808956 L 26.782193,52.881776 L 8.4406001,52.881776 z" id="path3244"/>
    <path style="fill:#f15a23;fill-rule:evenodd" d="M 2.639645,13.026979 L 6.4010417,17.784991 L 21.86648,37.110286 L 26.877876,33.119627 C 26.877876,33.119627 22.717521,28.221639 19.924032,22.755996 C 14.462432,12.070028 18.329111,5.4169256 18.329111,5.4169256 L 2.639645,5.4169256 L 2.639645,13.026979 z" id="path3248"/>
    <path style="fill:#f15a23;fill-rule:evenodd" d="M 24.070828,40.093628 L 29.174574,35.878 C 29.174574,35.878 34.049012,42.294496 39.701056,43.808956 C 47.107699,45.793561 50.387026,40.938099 50.387026,40.938099 L 50.387026,52.881776 L 34.118831,52.881776 L 37.78715,49.710162 C 37.78715,49.710162 35.873245,50.986099 31.192409,47.743866 C 28.429705,45.830245 24.070828,40.093628 24.070828,40.093628 z" id="path3250"/>
    <path style="fill:#f15a23;fill-rule:evenodd" d="M 24.540039,5.3821241 C 24.540039,5.3821241 22.911869,7.6001049 24.070828,13.026979 C 25.309597,18.827567 30.236192,24.966841 30.224738,24.829396 C 30.224738,24.829396 30.541474,18.733372 34.118831,15.156015 C 41.744012,7.5308337 50.387026,12.070028 50.387026,12.070028 L 50.387026,5.4169256 L 24.540039,5.3821241 z" id="path3262"/>
    <path style="fill:#f15a23;fill-rule:evenodd" d="M 50.387026,20.108539 C 50.387026,20.108539 45.564883,15.978126 41.372471,15.978126 C 36.009474,15.978126 33.082131,20.608193 33.082131,23.966811 C 33.082131,28.858882 35.430281,31.577164 37.78715,33.934033 C 41.174118,37.321003 45.294614,40.97395 50.387026,38.033845 C 50.387026,32.469346 50.387026,20.108539 50.387026,20.108539 z" id="path3298"/>
    <path style="fill:#005e6a;fill-rule:evenodd" d="M 105.30425,5.879728 L 116.68337,5.879728 C 116.68337,5.879728 126.76382,21.142966 131.71787,27.449097 C 136.67192,33.755229 142.00445,40.938099 142.00445,40.938099 C 142.00445,40.938099 142.00445,20.108539 142.00445,9.2979154 C 142.00445,7.9314015 138.41645,5.879728 138.41645,5.879728 L 151.5383,5.879728 C 151.5383,5.879728 147.23268,7.6486712 147.23268,9.2979154 C 147.23268,22.755996 147.23268,55.326938 147.23268,55.326938 C 147.23268,55.326938 143.10134,53.035968 138.41645,47.592107 C 133.15267,41.475564 114.42805,16.781476 114.42805,16.781476 C 114.42805,16.781476 114.42805,40.093628 114.42805,48.766005 C 114.42805,50.404057 118.01605,52.881776 118.01605,52.881776 L 105.30425,52.881776 C 105.30425,52.881776 108.78974,50.384011 108.78974,48.766005 C 108.78974,37.110286 108.78974,20.108539 108.78974,9.2979154 C 108.78974,7.845405 105.30425,5.879728 105.30425,5.879728 z" id="path3249"/>
    <path style="fill:#005e6a;fill-rule:evenodd" d="M 158.88749,5.879728 L 173.49181,5.879728 C 173.49181,5.879728 169.57029,7.7372705 169.57029,9.2979154 C 169.57029,20.108539 169.57029,38.033845 169.57029,48.766005 C 169.57029,50.471471 173.49181,52.881776 173.49181,52.881776 L 158.88749,52.881776 C 158.88749,52.881776 162.53858,50.416551 162.53858,48.766005 C 162.53858,35.878 162.53858,20.108539 162.53858,9.2979154 C 162.53858,7.7974835 158.88749,5.879728 158.88749,5.879728 z" id="path3267"/>
    <path id="path3283" style="fill:#005e6a;fill-rule:evenodd" d="M 62.336709,5.879728 C 62.336709,5.879728 66.123016,7.7676194 66.123016,9.2979154 C 66.123016,20.108539 66.123016,35.878 66.123016,48.766005 C 66.123016,50.443746 62.336709,52.881776 62.336709,52.881776 L 62.336709,52.881776 C 62.336709,52.881776 81.252103,52.881776 83.972742,52.881776 C 85.324993,52.881776 100.47022,50.405227 100.47022,38.728903 C 100.47022,27.052582 88.70562,25.959251 88.70562,25.959251 C 88.70562,25.959251 95.872555,23.966811 95.872555,15.978126 C 95.872555,7.3672046 85.324993,5.879728 83.972742,5.879728 C 81.162555,5.879728 62.336709,5.879728 62.336709,5.879728 z M 73.830852,25.185459 L 73.830852,10.491177 C 73.830852,10.491177 80.102352,10.491177 82.620492,10.491177 C 83.972742,10.491177 88.70562,12.070028 88.70562,17.927774 C 88.70562,22.755996 83.972742,25.185459 82.620492,25.185459 C 79.554744,25.185459 73.830852,25.185459 73.830852,25.185459 z M 73.830852,29.039416 C 73.830852,29.039416 82.620492,29.039416 83.972742,29.039416 C 85.324993,29.039416 93.303277,31.111756 93.303277,38.033845 C 93.303277,45.091156 85.324993,47.592107 83.972742,47.592107 C 82.620492,47.592107 73.830852,47.592107 73.830852,47.592107 L 73.830852,29.039416 z"/>
  </g>
</svg>